<?xml version="1.0" standalone="no"?>
<!DOCTYPE svg PUBLIC "-//W3C//DTD SVG 20010904//EN"
 "http://www.w3.org/TR/2001/REC-SVG-20010904/DTD/svg10.dtd">
<svg version="1.0" xmlns="http://www.w3.org/2000/svg"
 width="531.000000pt" height="531.000000pt" viewBox="0 0 531.000000 531.000000"
 preserveAspectRatio="xMidYMid meet">
<metadata>
Created by potrace 1.11, written by Peter Selinger 2001-2013
</metadata>
<g transform="translate(0.000000,531.000000) scale(0.100000,-0.100000)"
fill="#000000" stroke="none">
<path d="M2385 5194 c-163 -21 -317 -48 -334 -59 -4 -2 -22 -7 -39 -10 -55 -9
-193 -56 -188 -63 5 -8 64 -49 362 -255 334 -231 1008 -697 1209 -837 467
-324 486 -337 472 -312 -3 4 -8 30 -11 57 -4 28 -16 100 -26 160 -11 61 -22
124 -24 140 -37 227 -167 1000 -169 1001 -4 3 -175 63 -237 83 -113 36 -286
71 -475 97 -88 12 -443 11 -540 -2z"/>
<path d="M1616 4985 c-11 -8 -25 -15 -31 -15 -19 0 -230 -117 -334 -184 -270
-175 -541 -443 -711 -701 -29 -44 -60 -91 -70 -105 -22 -32 -130 -234 -130
-244 0 -3 10 -5 23 -2 42 8 102 19 117 21 8 2 56 11 105 20 50 9 99 18 110 20
31 5 95 16 119 21 25 6 110 22 151 29 17 2 41 7 55 10 58 11 359 67 480 89 14
3 234 44 490 91 256 48 476 89 490 91 83 14 252 46 292 55 l48 11 -105 71
c-84 58 -896 618 -980 677 -48 33 -90 60 -95 60 -3 -1 -14 -7 -24 -15z"/>
<path d="M3820 4917 c0 -8 7 -50 14 -93 8 -44 17 -95 20 -114 3 -19 7 -44 10
-55 4 -25 20 -116 21 -130 2 -12 16 -91 21 -120 3 -11 7 -36 10 -55 2 -19 7
-46 10 -60 2 -14 6 -36 9 -50 11 -63 77 -458 81 -482 2 -16 6 -43 9 -60 3 -18
8 -46 12 -63 3 -16 7 -39 8 -51 2 -11 8 -45 14 -75 5 -30 13 -70 15 -89 3 -19
15 -89 26 -155 12 -66 34 -201 51 -300 16 -99 32 -191 35 -205 3 -14 7 -38 9
-55 3 -16 9 -52 14 -80 6 -27 12 -65 15 -83 2 -19 6 -36 9 -38 3 -3 51 59 95
122 7 11 123 174 258 364 135 190 291 409 346 487 l99 143 -75 152 c-166 335
-360 586 -636 822 -125 107 -246 195 -350 253 -19 11 -61 35 -92 52 -43 25
-58 29 -58 18z"/>
<path d="M1619 3806 c-2 -2 -22 -6 -44 -9 -22 -3 -80 -13 -130 -22 -170 -30
-200 -36 -285 -50 -47 -8 -95 -17 -106 -19 -12 -2 -37 -7 -55 -10 -19 -3 -45
-8 -59 -10 -39 -8 -251 -45 -290 -51 -19 -3 -83 -15 -141 -25 -58 -11 -124
-23 -147 -26 -95 -13 -94 -12 -127 -112 -40 -120 -36 -107 -57 -187 -19 -72
-24 -95 -34 -155 -3 -19 -7 -37 -9 -40 -2 -3 -6 -37 -10 -75 -4 -39 -9 -73
-11 -76 -6 -10 -17 -211 -16 -295 2 -254 34 -476 103 -713 17 -58 34 -112 38
-119 8 -14 20 1 146 183 132 189 528 757 674 965 111 159 367 525 436 625 26
39 73 105 102 148 33 47 49 77 40 77 -7 0 -16 -2 -18 -4z"/>
<path d="M4969 3295 c-63 -91 -137 -198 -165 -238 -27 -40 -135 -196 -239
-347 -104 -151 -193 -276 -197 -278 -4 -2 -8 -7 -8 -12 0 -7 -198 -296 -475
-695 -42 -60 -105 -152 -140 -202 -41 -59 -59 -93 -50 -93 14 0 72 11 380 70
55 10 111 21 125 23 14 3 108 21 210 41 196 37 201 39 295 56 33 6 92 17 130
25 39 8 86 17 105 20 19 4 42 8 50 10 8 2 20 4 26 4 20 2 101 242 139 411 24
109 23 102 41 222 26 178 25 491 -1 688 -16 118 -93 442 -109 457 -2 2 -54
-71 -117 -162z"/>
<path d="M986 2604 c-133 -196 -293 -432 -481 -708 -94 -137 -174 -258 -179
-267 -18 -36 147 -333 290 -522 156 -205 323 -370 537 -529 113 -83 360 -228
390 -228 3 0 1 17 -3 38 -10 41 -17 78 -25 120 -3 15 -8 38 -10 52 -3 14 -8
39 -11 55 -2 17 -7 37 -9 45 -3 8 -7 33 -11 55 -3 22 -7 42 -9 45 -2 3 -6 26
-10 50 -3 25 -11 65 -17 90 -5 25 -12 56 -14 70 -6 27 -53 273 -60 305 -2 11
-7 36 -10 55 -4 19 -8 44 -11 55 -4 21 -19 101 -28 145 -3 14 -9 48 -15 75 -6
28 -12 61 -15 75 -14 75 -102 526 -141 720 -25 124 -47 240 -50 259 -14 83
-15 83 -108 -55z"/>
<path d="M1475 1559 c4 -24 9 -53 11 -64 9 -42 35 -191 39 -215 3 -22 11 -69
21 -125 8 -41 14 -75 54 -300 48 -276 47 -270 65 -370 8 -44 17 -96 21 -115 3
-19 7 -42 9 -50 2 -8 4 -23 4 -32 1 -10 14 -21 34 -27 17 -5 63 -20 100 -34
58 -22 281 -82 342 -93 194 -33 258 -39 475 -39 178 0 294 6 365 19 11 2 43 7
70 10 54 8 332 78 379 96 l29 11 -79 54 c-43 30 -84 58 -90 62 -10 8 -27 19
-79 53 -16 10 -34 23 -40 27 -5 5 -93 64 -195 132 -102 69 -239 161 -305 206
-310 211 -412 280 -570 386 -93 62 -172 116 -175 119 -3 3 -115 79 -249 169
l-243 163 7 -43z"/>
<path d="M4929 1526 c-2 -2 -89 -20 -194 -40 -104 -20 -201 -38 -215 -41 -14
-3 -36 -7 -50 -10 -14 -3 -34 -7 -45 -9 -11 -2 -69 -13 -130 -25 -60 -11 -121
-23 -135 -26 -14 -3 -36 -7 -50 -10 -14 -3 -34 -7 -45 -9 -11 -2 -58 -11 -105
-20 -47 -9 -94 -18 -105 -20 -11 -2 -117 -23 -235 -45 -180 -35 -267 -52 -335
-67 -5 -1 -26 -4 -45 -7 -19 -4 -80 -16 -135 -27 -55 -11 -113 -23 -130 -26
-33 -5 -376 -72 -414 -80 l-24 -5 29 -18 c24 -16 440 -303 939 -649 55 -38
112 -77 126 -86 25 -15 29 -14 155 48 272 135 460 271 680 490 159 160 280
312 381 481 87 144 116 205 100 205 -8 0 -16 -2 -18 -4z"/>
</g>
</svg>
